<?xml version="1.0" standalone="no"?>
<svg version="1.0" xmlns="http://www.w3.org/2000/svg"
 width="1024.000000pt" height="1024.000000pt" viewBox="0 0 1024.000000 1024.000000"
 preserveAspectRatio="xMidYMid meet">
<g transform="translate(0.000000,1024.000000) scale(0.100000,-0.100000)"
fill="#6D28D9" stroke="none">
<path d="M2040 6821 l0 -2153 153 145 c293 279 505 435 776 571 266 134 613
241 896 275 44 6 346 15 670 21 1020 18 1191 25 1256 49 197 74 338 247 370
451 13 89 -1 232 -32 317 -61 165 -214 294 -400 338 -138 32 -437 16 -719 -41
-400 -79 -879 -270 -1328 -528 -169 -97 -212 -119 -220 -111 -4 4 -8 303 -10
666 l-3 659 1227 0 1227 0 101 -36 c426 -153 681 -439 777 -869 14 -63 22
-144 26 -270 13 -422 -78 -683 -325 -938 -125 -127 -262 -216 -438 -283 -146
-55 -149 -56 -1099 -64 -933 -8 -991 -11 -1222 -61 -201 -43 -444 -139 -631
-248 -283 -165 -589 -481 -755 -781 -120 -216 -243 -592 -267 -815 -15 -142
-29 -775 -30 -1351 l0 -491 383 -6 c210 -4 529 -7 710 -7 l327 0 0 573 c1 682
13 1122 35 1222 24 112 59 169 170 281 88 88 112 106 195 146 l95 46 925 11
c509 6 988 16 1065 21 254 19 592 118 866 255 751 376 1239 1086 1364 1985 22
160 31 550 16 734 -33 412 -143 810 -309 1116 -310 575 -871 1029 -1493 1208
-289 84 -275 82 -799 92 -261 5 -1167 12 -2012 16 l-1538 7 0 -2152z"/>
</g>
</svg>
